<?xml version="1.0" encoding="UTF-8"?>
<svg width="254px" height="45px" viewBox="0 0 254 45" version="1.1" xmlns="http://www.w3.org/2000/svg" xmlns:xlink="http://www.w3.org/1999/xlink">
    <title>logo/logo_lightbg</title>
    <g id="logo/logo_lightbg" stroke="none" stroke-width="1" fill="none" fill-rule="evenodd">
        <g id="text" transform="translate(53.7917, 12.2559)" fill="#161C27" fill-rule="nonzero">
            <path d="M10.2448986,20.0003991 C16.1443521,20.0003991 20.4898874,15.9259783 20.4898874,10.370453 C20.4898874,4.81483699 16.1443521,0.740779038 10.2448986,0.740779038 C4.3455353,0.740779038 0,4.81483699 0,10.370453 C0,15.9259783 4.3455353,20.0003991 10.2448986,20.0003991 Z M10.2448986,15.6620299 C7.45328155,15.6620299 5.26728541,13.5715763 5.26728541,10.370453 C5.26728541,7.16942044 7.45328155,5.07942037 10.2448986,5.07942037 C13.0366059,5.07942037 15.2225117,7.16942044 15.2225117,10.370453 C15.2225117,13.5715763 13.0366059,15.6620299 10.2448986,15.6620299 Z M30.9191721,5.05293482 C29.0491246,5.05293482 27.6531355,5.58210157 26.7050187,6.71961962 L26.7050187,5.29103265 L21.9382487,5.29103265 L21.9382487,25 L26.9424994,25 L26.9424994,18.3595649 C27.9168023,19.3654716 29.2604192,19.8679714 30.9191721,19.8679714 C34.7911005,19.8679714 37.9244008,17.0107974 37.9244008,12.4604531 C37.9244008,7.91010877 34.7911005,5.05293482 30.9191721,5.05293482 Z M29.865408,15.8733701 C28.1804691,15.8733701 26.8630382,14.6298191 26.8630382,12.4604531 C26.8630382,10.2910871 28.1804691,9.04771753 29.865408,9.04771753 C31.55125,9.04771753 32.8677779,10.2910871 32.8677779,12.4604531 C32.8677779,14.6298191 31.55125,15.8733701 29.865408,15.8733701 Z M54.5697198,12.4869386 C54.5697198,7.75137689 51.1456637,5.05293482 46.9315103,5.05293482 C42.428407,5.05293482 39.0838122,8.12181176 39.0838122,12.4339675 C39.0838122,16.7196378 42.3760349,19.8679714 47.4588438,19.8679714 C50.1713608,19.8679714 52.1732417,19.0743119 53.5421418,17.5396013 L50.909086,14.788551 C49.9338801,15.6348187 49.0128524,16.0321019 47.6168633,16.0321019 C45.7730019,16.0321019 44.5350322,15.1858342 44.114249,13.7303082 L54.4902586,13.7303082 L54.5398089,13.0986913 C54.556401,12.8837457 54.5697198,12.6721107 54.5697198,12.4869386 Z M46.9585994,8.62440226 C48.511705,8.62440226 49.6178412,9.57679358 49.881508,11.0847465 L44.0347878,11.0847465 C44.3246406,9.57679358 45.4045908,8.62440226 46.9585994,8.62440226 Z M65.1308379,5.05293482 C63.3393486,5.05293482 61.7329679,5.66146752 60.6006455,6.85195667 L60.6006455,5.29103265 L55.8338755,5.29103265 L55.8338755,19.62942 L60.8372232,19.62942 L60.8372232,12.6985509 C60.8372232,10.3175726 62.0751929,9.3123009 63.6815736,9.3123009 C65.1308379,9.3123009 66.0256795,10.1853263 66.0256795,12.2488408 L66.0256795,19.62942 L71.0299302,19.62942 L71.0299302,11.4286958 C71.0299302,6.984203 68.4754327,5.05293482 65.1308379,5.05293482 Z M80.9851566,1.1111232 L72.5577527,1.1111232 L72.5577527,19.62942 L77.7723951,19.62942 L77.7723951,14.788551 L80.9851566,14.788551 C86.0155934,14.788551 89.1759827,12.1694749 89.1759827,7.96307987 C89.1759827,3.73019933 86.0155934,1.1111232 80.9851566,1.1111232 Z M80.6691176,10.6615219 L77.7723951,10.6615219 L77.7723951,5.23815225 L80.6691176,5.23815225 C82.829018,5.23815225 83.9080652,6.24342396 83.9080652,7.96307987 C83.9080652,9.65615952 82.829018,10.6615219 80.6691176,10.6615219 Z M90.4139523,0 L95.4179321,0 L95.4179321,19.6298735 L90.4139523,19.6298735 L90.4139523,0 Z M103.687587,5.05293482 C101.448226,5.05293482 99.0255617,5.63498197 97.3929949,6.71961962 L99.0779338,10.1323552 C100.05314,9.3651813 101.580059,8.88898564 102.949862,8.88898564 C104.924654,8.88898564 105.89986,9.70913062 105.978418,11.1641124 L103.134068,11.1641124 C98.7095227,11.1641124 96.7871031,12.8044024 96.7871031,15.4497827 C96.7871031,17.9368846 98.6833367,19.8679714 102.107393,19.8679714 C104.187832,19.8679714 105.610007,19.1532243 106.320643,17.7781527 L106.320643,19.62942 L110.982669,19.62942 L110.982669,11.6667937 C110.982669,7.11644934 108.322524,5.05293482 103.687587,5.05293482 Z M103.502479,16.6933336 C102.317784,16.6933336 101.633334,16.0847102 101.633334,15.2384425 C101.633334,14.3649636 102.212137,13.7831886 103.818518,13.7831886 L105.978418,13.7831886 L105.978418,15.0271023 C105.583821,16.1645297 104.608615,16.6933336 103.502479,16.6933336 Z M121.858923,5.05293482 C120.068337,5.05293482 118.461956,5.66146752 117.329634,6.85195667 L117.329634,5.29103265 L112.562864,5.29103265 L112.562864,19.62942 L117.566211,19.62942 L117.566211,12.6985509 C117.566211,10.3175726 118.804181,9.3123009 120.410562,9.3123009 C121.858923,9.3123009 122.754668,10.1853263 122.754668,12.2488408 L122.754668,19.62942 L127.758918,19.62942 L127.758918,11.4286958 C127.758918,6.984203 125.204421,5.05293482 121.858923,5.05293482 Z M144.640815,12.4869386 C144.640815,7.75137689 141.216759,5.05293482 137.002606,5.05293482 C132.499502,5.05293482 129.154907,8.12181176 129.154907,12.4339675 C129.154907,16.7196378 132.446227,19.8679714 137.529939,19.8679714 C140.242456,19.8679714 142.243434,19.0743119 143.613237,17.5396013 L140.979278,14.788551 C140.004975,15.6348187 139.083045,16.0321019 137.687959,16.0321019 C135.844097,16.0321019 134.606127,15.1858342 134.184441,13.7303082 L144.561354,13.7303082 L144.610904,13.0986913 C144.627496,12.8837457 144.640815,12.6721107 144.640815,12.4869386 Z M137.028792,8.62440226 C138.5828,8.62440226 139.688936,9.57679358 139.952603,11.0847465 L134.105883,11.0847465 C134.395736,9.57679358 135.475686,8.62440226 137.028792,8.62440226 Z M155.043011,15.5296021 C154.622227,15.8207618 154.068708,15.9794937 153.516091,15.9794937 C152.620346,15.9794937 152.014455,15.3971744 152.014455,14.3386595 L152.014455,9.57679358 L155.280491,9.57679358 L155.280491,5.8201994 L152.014455,5.8201994 L152.014455,2.09000007 L147.011107,2.09000007 L147.011107,5.8201994 L144.929765,5.8201994 L144.929765,9.57679358 L147.011107,9.57679358 L147.011107,14.3921748 C147.011107,18.0693123 149.143918,19.8679714 152.804552,19.8679714 C154.121983,19.8679714 155.412325,19.6031159 156.28098,19.0480078 L155.043011,15.5296021 Z M163.76117,5.05293482 C161.521809,5.05293482 159.099145,5.63498197 157.466578,6.71961962 L159.151517,10.1323552 C160.126723,9.3651813 161.653642,8.88898564 163.023445,8.88898564 C164.998237,8.88898564 165.973443,9.70913062 166.052001,11.1641124 L163.207651,11.1641124 C158.783106,11.1641124 156.860686,12.8044024 156.860686,15.4497827 C156.860686,17.9368846 158.75692,19.8679714 162.180976,19.8679714 C164.261415,19.8679714 165.68359,19.1532243 166.394226,17.7781527 L166.394226,19.62942 L171.056252,19.62942 L171.056252,11.6667937 C171.056252,7.11644934 168.396107,5.05293482 163.76117,5.05293482 Z M163.576062,16.6933336 C162.391367,16.6933336 161.706917,16.0847102 161.706917,15.2384425 C161.706917,14.3649636 162.28572,13.7831886 163.892101,13.7831886 L166.052001,13.7831886 L166.052001,15.0271023 C165.657404,16.1645297 164.682198,16.6933336 163.576062,16.6933336 Z M177.403216,7.01068855 L177.403216,5.29103265 L172.636446,5.29103265 L172.636446,19.62942 L177.639794,19.62942 L177.639794,13.0425002 C177.639794,10.5291849 179.035783,9.49742764 181.06385,9.49742764 C181.432261,9.49742764 181.7483,9.52391319 182.196173,9.57679358 L182.196173,5.05293482 C180.089547,5.05293482 178.429892,5.71434791 177.403216,7.01068855 Z M195.23323,5.29103265 L191.703527,14.0474998 L188.200912,5.29103265 L183.065731,5.29103265 L189.175215,19.8153631 C188.754432,20.6616308 188.200912,21.0317028 187.226609,21.0317028 C186.436512,21.0317028 185.594043,20.7142391 185.014337,20.1854351 L183.276123,23.7038408 C184.22424,24.4975002 185.910082,25 187.410815,25 C190.228979,25 192.335604,23.916088 193.837241,20.2117393 L200,5.29103265 L195.23323,5.29103265 Z"></path>
        </g>
        <g id="logoshape" fill="#161C27">
            <path d="M16.7742,44.2647 L16.7742,38.4147 C18.5625,39.0582 20.4903,39.4083 22.5,39.4083 C31.8384,39.4083 39.4083,31.8384 39.4083,22.5 C39.4083,13.1616 31.8384,5.5917 22.5,5.5917 C13.1616,5.5917 5.5917,13.1616 5.5917,22.5 C5.5917,22.59 5.5917,22.68 5.5935,22.7691 L5.5917,22.7691 L5.5917,37.3446 C2.1105,33.3828 0,28.188 0,22.5 C0,10.0737 10.0737,0 22.5,0 C34.9263,0 45,10.0737 45,22.5 C45,34.9263 34.9263,45 22.5,45 C20.5209,45 18.6021,44.7444 16.7742,44.2647 Z M22.5,28.2258 C19.3374,28.2258 16.7742,25.6626 16.7742,22.5 C16.7742,19.3374 19.3374,16.7742 22.5,16.7742 C25.6626,16.7742 28.2258,19.3374 28.2258,22.5 C28.2258,25.6626 25.6626,28.2258 22.5,28.2258 Z" id="shape"></path>
        </g>
    </g>
</svg>